<svg width="39" height="41" viewBox="0 0 39 41" fill="none" xmlns="http://www.w3.org/2000/svg">
<path d="M22.4644 1.10526C23.5247 0.341945 24.7586 0.0999756 25.6001 0.0999756H29.2874C30.4428 0.0999756 31.5765 0.413983 32.5675 1.00846L37.1121 3.73526C37.8801 4.19612 38.3501 5.02614 38.3501 5.92188V9.02498C38.3501 11.1375 36.6375 12.85 34.5251 12.85H33.2501V33.3461C34.3247 33.5129 35.399 33.9122 36.2976 34.6611C37.5956 35.7426 38.3501 37.406 38.3501 39.625C38.3501 40.329 37.7792 40.9 37.0751 40.9H29.4271H7.7501C3.52513 40.9 0.100098 37.4751 0.100098 33.25C0.100098 30.7494 1.30107 28.5292 3.15224 27.1353C3.7148 26.7118 4.51417 26.8245 4.93773 27.387C5.36128 27.9495 5.24862 28.749 4.68609 29.1725C3.44718 30.1053 2.6501 31.5843 2.6501 33.25C2.6501 36.0667 4.93344 38.35 7.7501 38.35C8.48325 38.35 8.94834 38.1705 9.25419 37.9665C9.56802 37.7574 9.79313 37.4692 9.95659 37.1423C10.1225 36.8105 10.2118 36.4632 10.2577 36.1881C10.2801 36.0535 10.2908 35.9443 10.2959 35.8734C10.2984 35.8385 10.2994 35.8135 10.2999 35.8005L10.3001 35.7926V35.7877L10.3003 35.7643L10.3017 35.6852C10.3031 35.6182 10.3059 35.5236 10.3114 35.4035C10.3223 35.1635 10.3438 34.8215 10.3861 34.398C10.4707 33.5524 10.6391 32.3746 10.9757 31.0282C11.6451 28.3504 13.0018 24.9201 15.7735 22.1483C20.4732 17.4488 20.5001 11.143 20.5001 9.02498V5.19998C20.5001 3.25443 21.3393 1.9154 22.4644 1.10526ZM22.8563 12.5958C22.46 15.7979 21.2529 20.2754 17.5766 23.9517C15.2483 26.2798 14.0551 29.2245 13.4495 31.6468C13.1486 32.8504 12.9983 33.9038 12.9235 34.652C12.8861 35.0253 12.8677 35.3208 12.8587 35.5192C12.8542 35.6182 12.8521 35.6929 12.851 35.7406L12.8502 35.7916L12.8501 35.8025V35.8056L12.85 35.813L12.8498 35.8316L12.8485 35.8854C12.847 35.9285 12.8444 35.9856 12.8394 36.0552C12.8295 36.1937 12.8103 36.3832 12.773 36.6073C12.6993 37.0492 12.5496 37.6582 12.2374 38.2827C12.2262 38.3051 12.2148 38.3275 12.2031 38.35H27.9446C27.688 37.5355 27.1712 36.6958 26.2815 36.2279C25.8079 35.9785 25.1742 35.8 24.3231 35.8H21.7751C21.071 35.8 20.5001 35.229 20.5001 34.525C20.5001 33.8209 21.071 33.25 21.7751 33.25H24.3251C24.7736 33.25 25.1985 33.2852 25.6001 33.3522V26.875C25.6001 26.1709 26.171 25.6 26.8751 25.6C27.5792 25.6 28.1501 26.1709 28.1501 26.875V34.3926C29.6271 35.4575 30.3094 37.0431 30.568 38.35H35.6678C35.475 37.5143 35.0927 36.9765 34.6651 36.6201C34.0097 36.0738 33.0606 35.8 31.9751 35.8C31.271 35.8 30.7001 35.229 30.7001 34.525V11.575C30.7001 10.8708 31.271 10.3 31.9751 10.3H34.5251C35.2292 10.3 35.8001 9.72913 35.8001 9.02498V5.92188L31.2555 3.19506C30.6611 2.8384 29.9807 2.64998 29.2874 2.64998H25.6001C25.1666 2.64998 24.488 2.79051 23.9546 3.17469C23.4859 3.51205 23.0501 4.08552 23.0501 5.19998V9.02498C23.0501 9.24596 23.1269 9.60579 23.3199 9.87374C23.466 10.0767 23.7207 10.3 24.3251 10.3C24.9294 10.3 25.1842 10.0767 25.3303 9.87374C25.5233 9.60579 25.6001 9.24596 25.6001 9.02498C25.6001 8.32082 26.171 7.74998 26.8751 7.74998C27.5792 7.74998 28.1501 8.32082 28.1501 9.02498C28.1501 9.65401 27.9719 10.5692 27.3999 11.3637C26.781 12.2233 25.7607 12.85 24.3251 12.85C23.7748 12.85 23.2855 12.7579 22.8563 12.5958Z" fill="#F1F1F1"/>
</svg>
